<svg width="96" height="96" viewBox="0 0 96 96" fill="none" xmlns="http://www.w3.org/2000/svg">
<path d="M48 0C21.573 0 0 21.573 0 48C0 74.427 21.573 96 48 96C74.427 96 96 74.427 96 48C96 21.573 74.427 0 48 0Z" fill="white"/>
<path d="M72.1348 13.6179C68.4944 23.0561 60.1348 24.9438 48 24.9438C46.6517 24.9438 45.4382 24.9438 44.2247 24.9438C43.0112 24.9438 41.9326 24.9438 40.7191 24.9438C39.7753 24.9438 38.6966 24.9438 37.7528 24.9438C39.5056 20.764 42.2022 17.9325 45.9775 16.3145C51.3708 13.8876 58.2472 13.8876 64.4494 13.8876C67.2809 13.7528 69.8427 13.7528 72.1348 13.6179Z" fill="#009138"/>
<path d="M75.9101 16.5843C70.5169 28.4495 58.3821 29.5281 48.1349 29.5281C45.8427 29.5281 43.6854 29.5281 41.663 29.3933L39.1012 39.6405C52.4495 28.7191 70.1124 39.5057 68.2248 55.9551C67.0113 67.0113 59.0562 74.2922 50.6967 76.3146C41.663 78.6068 31.5506 75.236 26.9663 65.9326C26.427 64.9888 25.618 62.9663 25.3483 61.8877L34.9214 59.4607C35.0562 60 35.3259 60.5394 35.7304 61.0787C42.2023 71.4607 55.1461 66.2023 56.6292 55.5506C58.1124 44.6292 42.7416 38.8315 35.8652 51.6405L27.3708 48H27.236L31.2809 31.5506C31.5506 30.3371 32.3596 27.1012 32.4944 26.5618C37.0787 9.43824 52.045 9.16857 64.1798 9.16857C59.191 7.1461 53.7978 5.93262 48 5.93262C24.809 5.93262 5.93262 24.809 5.93262 48C5.93262 71.191 24.809 90.0675 48 90.0675C71.191 90.0675 90.0675 71.191 90.0675 48C90.0675 35.4607 84.5394 24.2697 75.9101 16.5843Z" fill="#E51E1E"/>
</svg>
